# xmcd CD database file
#
# Track frame offsets:
#	150
#	29082
#	54626
#	75398
#	100200
#	134098
#	183854
#	241088
#	267861
#
# Disc length: 4277 seconds
#
# Revision: 0
# Processed by: cddbd v1.5.2PL0 Copyright (c) Steve Scherf et al.
# Submitted via: CDex 1.51
#
DISCID=7510b309
DTITLE=Jack Bruce and His Big Blues Band - 2011 Lugano Estival Jazz Festival
DYEAR=2011
DGENRE=Blues
TTITLE0=Jack Bruce and His Big Blues Band - Theme For An Imaginary Western
TTITLE1=Jack Bruce and His Big Blues Band - Never Tell Your Mother She's Out of Tune
TTITLE2=Jack Bruce and His Big Blues Band - First Time I Met The Blues
TTITLE3=Jack Bruce and His Big Blues Band - Neighbour Neighbour
TTITLE4=Jack Bruce and His Big Blues Band - This Anger's Liar
TTITLE5=Jack Bruce and His Big Blues Band - Born Under A Bad Sign
TTITLE6=Jack Bruce and His Big Blues Band - We're Going Wrong
TTITLE7=Jack Bruce and His Big Blues Band - White Room
TTITLE8=Jack Bruce and His Big Blues Band - Sunshine Of Your Love
EXTD=YEAR: 2011
EXTT0=
EXTT1=
EXTT2=
EXTT3=
EXTT4=
EXTT5=
EXTT6=
EXTT7=
EXTT8=
PLAYORDER=
